<?xml version="1.0" standalone="no"?>
<!DOCTYPE svg PUBLIC "-//W3C//DTD SVG 20010904//EN"
 "http://www.w3.org/TR/2001/REC-SVG-20010904/DTD/svg10.dtd">
<svg version="1.0" xmlns="http://www.w3.org/2000/svg"
 width="384.000000pt" height="384.000000pt" viewBox="0 0 384.000000 384.000000"
 preserveAspectRatio="xMidYMid meet">
<metadata>
Created by potrace 1.11, written by Peter Selinger 2001-2013
</metadata>
<g transform="translate(0.000000,384.000000) scale(0.100000,-0.100000)"
fill="#000000" stroke="none">
<path d="M613 3230 c-17 -5 -18 -29 -18 -450 1 -383 3 -445 15 -446 8 0 20 4
27 8 6 5 14 5 18 -2 4 -7 12 -7 24 0 10 5 21 6 25 3 11 -11 140 -11 154 0 8 6
12 6 12 -2 0 -6 5 -11 11 -11 5 0 7 5 3 12 -5 7 -3 8 7 3 20 -13 49 -13 42 -2
-4 7 1 8 13 3 10 -4 15 -4 12 0 -4 4 -3 15 2 25 7 12 7 20 0 24 -6 4 -8 11 -5
16 4 5 1 9 -6 9 -7 0 -5 6 6 13 13 10 15 16 6 21 -6 4 -9 12 -6 17 4 5 1 9 -6
9 -7 0 -5 6 6 13 13 10 15 16 6 21 -6 4 -9 12 -6 17 4 5 1 9 -6 9 -7 0 -5 6 6
13 13 10 15 16 6 21 -6 4 -9 12 -6 17 4 5 1 9 -6 9 -7 0 -5 6 6 13 13 10 15
16 6 21 -6 4 -9 12 -6 17 4 5 1 9 -6 9 -7 0 -5 6 6 13 13 10 15 16 6 21 -6 4
-9 12 -6 17 4 5 1 9 -6 9 -7 0 -5 6 6 13 13 10 15 16 6 21 -6 4 -9 12 -6 17 4
5 1 9 -6 9 -7 0 -5 6 6 13 13 10 15 16 6 21 -6 4 -9 12 -6 17 4 5 1 9 -5 9 -7
0 -6 6 3 15 13 12 61 15 273 17 l258 3 0 178 1 177 -35 0 c-280 4 -823 4 -837
0z"/>
<path d="M2398 3232 c-21 -2 -38 -9 -38 -15 0 -7 -4 -6 -10 3 -8 11 -9 8 -6
-12 3 -15 8 -33 12 -39 4 -8 3 -9 -4 -5 -13 8 -17 -6 -5 -17 8 -9 11 -87 2
-82 -3 2 -6 -9 -6 -25 0 -18 4 -27 11 -23 6 4 5 0 -1 -8 -9 -11 -9 -19 -2 -26
8 -8 8 -13 0 -17 -15 -10 -14 -29 2 -20 6 4 4 -1 -5 -12 -17 -19 -17 -21 0
-38 9 -11 11 -16 5 -12 -7 4 -13 2 -13 -3 0 -6 10 -11 23 -11 13 0 29 -6 36
-12 10 -9 12 -9 7 -1 -4 8 1 11 14 10 11 -1 20 -6 20 -12 0 -6 3 -5 8 1 12 20
107 12 134 -11 l23 -20 -20 23 -19 23 41 -2 c26 -2 40 -7 36 -13 -3 -6 0 -5 8
2 16 14 33 16 24 2 -3 -5 -2 -10 4 -10 5 0 11 6 14 13 3 9 9 9 25 0 13 -8 23
-9 27 -3 8 12 78 8 87 -5 5 -6 8 -5 8 3 0 6 10 12 22 12 20 0 19 -3 -12 -31
-25 -22 -27 -25 -6 -10 16 12 32 19 35 16 3 -4 -1 -10 -9 -15 -12 -8 -11 -10
5 -10 11 0 15 -4 10 -8 -6 -4 -11 -16 -11 -27 0 -11 -5 -19 -11 -18 -6 1 -18
-6 -27 -16 -13 -15 -14 -18 -2 -18 8 0 14 5 13 10 -1 5 6 11 16 12 9 2 17 -1
17 -6 0 -5 -6 -9 -12 -9 -7 0 -5 -5 5 -11 12 -7 15 -15 9 -22 -13 -19 -13 -59
1 -50 9 5 8 2 0 -9 -7 -8 -10 -18 -6 -21 3 -4 0 -7 -8 -7 -10 -1 -9 -4 4 -11
9 -6 15 -15 12 -20 -4 -5 -10 -7 -15 -4 -5 3 -12 1 -15 -5 -4 -6 -1 -9 7 -8 8
2 13 -7 13 -27 0 -16 4 -35 8 -42 4 -6 3 -14 -3 -18 -7 -4 -7 -12 0 -26 8 -13
7 -19 0 -19 -6 0 -8 -4 -5 -10 3 -5 1 -10 -5 -10 -6 0 -4 -7 5 -16 12 -12 13
-19 5 -24 -17 -11 -17 -15 2 -33 19 -20 32 -22 22 -4 -4 6 2 4 13 -6 16 -14
23 -15 29 -6 4 8 3 10 -4 5 -7 -4 -12 -2 -12 3 0 14 17 14 25 1 4 -6 12 -7 18
-3 7 4 22 8 35 9 17 1 22 -3 17 -15 -3 -11 0 -10 10 3 8 11 15 14 15 8 0 -16
37 -15 43 1 3 9 7 9 19 0 8 -7 18 -10 22 -6 9 9 76 12 76 3 0 -4 7 -7 15 -7 8
0 12 4 9 9 -3 4 0 8 6 8 7 0 10 7 7 15 -4 8 -2 17 4 20 5 4 6 12 2 18 -12 20
-11 337 1 330 8 -5 8 -3 0 8 -12 17 -12 48 0 68 6 10 5 12 -2 7 -7 -4 -12 -1
-12 8 0 9 6 16 13 16 8 0 9 2 1 8 -16 10 -16 92 -1 92 8 0 8 3 2 8 -7 4 -11
59 -11 140 -1 72 -3 134 -6 137 -3 4 -289 7 -358 4 -8 -1 -35 0 -60 0 -25 0
-52 0 -60 0 -19 -1 -141 1 -260 4 -36 1 -82 1 -102 -1z"/>
<path d="M2764 2842 c23 -26 23 -26 23 -7 0 8 -3 13 -5 10 -3 -3 -12 1 -21 7
-10 8 -9 4 3 -10z"/>
<path d="M2616 2842 c-3 -5 1 -9 9 -9 8 0 12 4 9 9 -3 4 -7 8 -9 8 -2 0 -6 -4
-9 -8z"/>
<path d="M2507 2819 c7 -7 15 -10 18 -7 3 3 -2 9 -12 12 -14 6 -15 5 -6 -5z"/>
<path d="M2740 2826 c0 -2 8 -10 18 -17 15 -13 16 -12 3 4 -13 16 -21 21 -21
13z"/>
<path d="M2390 2816 c0 -2 8 -10 18 -17 15 -13 16 -12 3 4 -13 16 -21 21 -21
13z"/>
<path d="M2711 2807 c2 -1 13 -9 24 -17 19 -14 19 -14 6 3 -7 9 -18 17 -24 17
-6 0 -8 -1 -6 -3z"/>
<path d="M2851 2794 c0 -11 3 -14 6 -6 3 7 2 16 -1 19 -3 4 -6 -2 -5 -13z"/>
<path d="M2593 2785 c0 -8 4 -12 9 -9 5 3 6 10 3 15 -9 13 -12 11 -12 -6z"/>
<path d="M2455 2780 c-3 -5 -1 -10 4 -10 6 0 11 5 11 10 0 6 -2 10 -4 10 -3 0
-8 -4 -11 -10z"/>
<path d="M2553 2783 c4 -3 1 -13 -6 -22 -11 -14 -10 -14 5 -2 16 12 16 31 1
31 -4 0 -3 -3 0 -7z"/>
<path d="M2786 2778 c3 -5 10 -6 15 -3 13 9 11 12 -6 12 -8 0 -12 -4 -9 -9z"/>
<path d="M2809 2763 c-13 -16 -12 -17 4 -4 16 13 21 21 13 21 -2 0 -10 -8 -17
-17z"/>
<path d="M2705 2760 c-3 -6 1 -7 9 -4 18 7 21 14 7 14 -6 0 -13 -4 -16 -10z"/>
<path d="M2753 2752 c-8 -14 -8 -19 1 -19 7 0 13 9 13 19 1 10 1 18 0 18 -1 0
-7 -8 -14 -18z"/>
<path d="M2827 2699 c7 -9 10 -19 6 -22 -3 -4 -1 -7 5 -7 17 0 15 16 -5 31
-16 12 -17 12 -6 -2z"/>
<path d="M2659 2688 c-5 -18 -6 -38 -1 -34 7 8 12 36 6 36 -2 0 -4 -1 -5 -2z"/>
<path d="M2795 2671 c-3 -5 -2 -12 3 -15 5 -3 9 1 9 9 0 17 -3 19 -12 6z"/>
<path d="M2754 2622 c4 -3 14 -7 22 -8 9 -1 13 0 10 4 -4 3 -14 7 -22 8 -9 1
-13 0 -10 -4z"/>
<path d="M3276 2598 c3 -5 10 -6 15 -3 13 9 11 12 -6 12 -8 0 -12 -4 -9 -9z"/>
<path d="M2986 2328 c3 -5 10 -6 15 -3 13 9 11 12 -6 12 -8 0 -12 -4 -9 -9z"/>
<path d="M3140 2335 c0 -2 6 -8 13 -14 10 -8 14 -7 14 2 0 8 -6 14 -14 14 -7
0 -13 -1 -13 -2z"/>
<path d="M3077 2253 c-10 -9 -9 -23 1 -23 5 0 9 7 9 15 0 17 -1 18 -10 8z"/>
<path d="M2973 2215 c0 -8 4 -12 9 -9 5 3 6 10 3 15 -9 13 -12 11 -12 -6z"/>
<path d="M2892 1474 c-7 -8 -12 -39 -12 -76 0 -120 -1 -142 -7 -151 -3 -6 -1
-7 5 -3 9 5 10 1 3 -16 -4 -13 -5 -32 -1 -43 4 -11 4 -29 0 -40 -4 -11 -4 -29
0 -40 4 -11 4 -29 0 -40 -4 -11 -4 -29 0 -40 4 -11 4 -30 -1 -41 -4 -12 -5
-25 -2 -28 8 -7 27 -7 -277 -7 -159 0 -249 -4 -240 -9 12 -8 12 -10 1 -10 -7
0 -11 -6 -8 -15 4 -8 2 -17 -2 -19 -9 -6 -7 -49 3 -65 4 -5 2 -12 -3 -15 -10
-6 -8 -72 2 -83 4 -3 2 -12 -4 -19 -7 -8 -7 -14 1 -19 6 -4 7 -12 1 -24 -6
-10 -6 -23 -1 -31 5 -9 5 -19 -1 -26 -7 -9 -5 -15 8 -21 10 -5 198 -8 418 -7
473 2 470 2 462 10 -3 4 -2 15 4 25 7 13 6 19 -1 19 -8 0 -8 6 0 20 6 11 8 26
3 33 -10 16 -10 48 0 70 4 9 4 17 -2 17 -5 0 -6 14 -1 34 4 18 3 41 -2 50 -5
10 -5 23 2 36 6 11 8 26 3 33 -10 16 -10 48 0 70 4 9 4 17 -2 17 -5 0 -6 14
-1 34 4 18 3 41 -2 50 -5 10 -5 23 2 37 8 15 8 24 0 34 -8 9 -8 15 0 20 7 4 7
12 0 25 -5 10 -7 27 -3 36 4 10 7 30 7 44 0 14 -3 34 -7 44 -4 9 -2 26 4 37 7
14 7 24 0 33 -7 8 -7 16 -1 22 7 7 5 17 -4 29 -15 20 -46 29 -46 13 0 -6 -7
-4 -17 3 -11 10 -14 10 -9 2 4 -7 2 -13 -3 -13 -6 0 -11 5 -11 11 0 8 -5 8
-15 -1 -12 -10 -15 -10 -15 1 0 11 -2 11 -10 -1 -8 -12 -11 -13 -19 -1 -6 10
-10 10 -16 1 -6 -9 -10 -9 -16 1 -7 11 -9 11 -9 -1 0 -13 -1 -13 -10 0 -8 12
-10 12 -10 1 0 -11 -3 -11 -17 0 -11 10 -14 10 -9 2 4 -7 2 -13 -3 -13 -6 0
-11 5 -11 11 0 8 -4 9 -13 0 -8 -6 -17 -8 -21 -4 -10 11 -37 12 -30 2 3 -5 1
-9 -5 -9 -5 0 -11 4 -13 9 -1 5 -9 3 -16 -5z"/>
<path d="M745 1472 c-94 -2 -153 -7 -160 -14 -7 -8 -6 -9 2 -4 14 8 13 -50 -1
-73 -6 -10 -5 -12 2 -7 14 8 12 -20 -2 -43 -6 -10 -5 -12 2 -7 16 10 15 -7 0
-23 -10 -11 -10 -12 -1 -7 9 5 12 -1 11 -18 -1 -15 -7 -26 -13 -26 -6 0 -7 -3
0 -8 14 -10 14 -102 1 -102 -6 0 -5 -4 3 -9 13 -8 13 -12 0 -27 -8 -10 -9 -15
-3 -11 6 4 10 -10 10 -39 -1 -24 -5 -44 -11 -44 -7 0 -7 -3 0 -8 14 -10 14
-102 1 -102 -6 0 -5 -4 3 -9 13 -8 13 -12 0 -27 -8 -10 -9 -15 -3 -11 6 4 10
-10 10 -39 -1 -24 -5 -44 -11 -44 -7 0 -7 -3 0 -8 14 -10 14 -102 1 -102 -6 0
-5 -4 3 -9 13 -8 13 -12 0 -27 -12 -15 -12 -17 0 -9 11 6 13 4 8 -8 -3 -9 1
-21 11 -29 8 -7 13 -8 9 -2 -4 7 10 11 43 11 29 0 47 -4 43 -10 -4 -6 -1 -7 8
-1 19 12 98 14 105 2 3 -4 11 -5 17 -1 19 11 117 12 110 0 -4 -6 -1 -7 8 -1
19 12 98 14 105 2 3 -4 11 -5 17 -1 19 11 117 12 110 0 -4 -6 -1 -7 8 -1 19
12 98 14 105 2 3 -4 11 -5 17 -1 20 12 117 12 110 -1 -3 -6 0 -5 8 1 16 15 33
17 24 3 -12 -19 7 -10 25 13 12 14 15 26 9 33 -11 14 -8 36 6 46 6 5 5 8 -4 8
-11 0 -11 3 0 17 8 9 9 14 3 10 -7 -4 -11 5 -12 25 -1 25 2 29 10 18 8 -12 8
-11 3 5 -12 36 -13 50 -1 64 8 11 8 13 -1 7 -8 -4 -13 -1 -13 9 0 9 5 13 11 9
8 -5 8 -1 0 14 -14 27 -14 35 2 26 9 -6 9 -4 1 7 -6 8 -10 24 -8 37 3 20 1 21
-15 12 -13 -7 -22 -7 -26 0 -3 5 -14 10 -23 10 -15 0 -15 -2 -2 -10 9 -6 10
-10 3 -10 -6 0 -15 5 -18 10 -5 8 -11 7 -21 -1 -8 -6 -14 -7 -14 -2 0 5 -9 9
-20 10 -13 1 -18 -2 -14 -10 5 -8 3 -8 -7 1 -7 6 -20 12 -28 12 -14 0 -14 -1
-1 -10 9 -6 10 -10 3 -10 -6 0 -15 5 -18 10 -5 8 -11 7 -21 -1 -8 -6 -14 -7
-14 -2 0 5 -9 9 -20 10 -13 1 -18 -2 -14 -10 5 -8 3 -8 -7 1 -7 6 -20 12 -29
12 -13 0 -13 -1 0 -10 9 -6 10 -10 3 -10 -6 0 -15 5 -18 10 -5 8 -11 7 -21 -1
-8 -6 -14 -7 -14 -2 0 5 -9 9 -20 10 -13 1 -18 -2 -14 -10 5 -8 3 -8 -7 1 -7
6 -20 12 -29 12 -13 0 -13 -1 0 -10 9 -6 10 -10 3 -10 -6 0 -15 5 -18 10 -5 8
-11 7 -21 -1 -10 -8 -14 -8 -14 0 0 13 -22 10 -32 -4 -4 -6 -8 -2 -8 8 0 10
-4 16 -9 13 -5 -3 -8 6 -8 19 0 14 4 25 9 25 5 0 6 5 3 10 -4 6 -12 7 -18 4
-9 -5 -9 -4 0 6 6 7 9 19 6 26 -3 8 0 14 7 14 6 0 8 5 5 10 -4 6 -12 7 -18 4
-9 -5 -9 -4 0 6 6 7 9 19 6 26 -3 8 0 14 7 14 6 0 8 5 5 10 -4 6 -12 7 -18 4
-9 -5 -9 -4 0 6 6 7 9 19 6 26 -3 8 0 14 7 14 6 0 8 5 5 10 -4 6 -11 7 -17 4
-7 -5 -8 -2 -3 7 14 22 15 60 2 52 -7 -4 -7 0 1 10 8 9 11 21 7 27 -3 5 0 10
7 10 10 0 10 2 1 8 -7 4 -10 21 -8 40 3 24 1 31 -8 26 -7 -4 -3 3 8 16 11 13
14 20 6 15 -10 -6 -12 -2 -6 15 6 17 4 21 -6 14 -12 -7 -12 -5 0 9 23 28 -8
33 -204 29z"/>
</g>
</svg>
