<?xml version="1.0" encoding="UTF-8"?>
<svg width="246px" height="32px" viewBox="0 0 246 32" version="1.1" xmlns="http://www.w3.org/2000/svg" xmlns:xlink="http://www.w3.org/1999/xlink">
    <title>powered-by-vuframe</title>
    <defs>
        <filter id="filter-1">
            <feColorMatrix in="SourceGraphic" type="matrix" values="0 0 0 0 1.000000 0 0 0 0 1.000000 0 0 0 0 1.000000 0 0 0 1.000000 0"></feColorMatrix>
        </filter>
    </defs>
    <g id="powered-by-vuframe" stroke="none" stroke-width="1" fill="none" fill-rule="evenodd">
        <g filter="url(#filter-1)" id="Logo_white_withoutSlogan_1c">
            <g transform="translate(92.000000, 1.000000)">
                <g id="Logo2021-Copy" transform="translate(15.205136, 15.236243) scale(-1, 1) translate(-15.205136, -15.236243) ">
                    <path d="M10.246344,0.0644644953 L10.246344,4.19414857 L4.149,4.1934645 L4.14976933,10.2612153 L0,10.2612153 L0,0.0644644953 L10.246344,0.0644644953 Z" id="Combined-Shape" fill="#FF5252"></path>
                    <path d="M10.246344,20.2112705 L10.246344,24.3409546 L4.149,24.3402705 L4.14976933,30.4080213 L0,30.4080213 L0,20.2112705 L10.246344,20.2112705 Z" id="Combined-Shape" fill="#1E2029" transform="translate(5.123172, 25.309646) rotate(-90.000000) translate(-5.123172, -25.309646) "></path>
                    <path d="M30.4102724,20.2660918 L30.4102724,24.3957759 L24.3129284,24.3950918 L24.3136977,30.4628426 L20.1639284,30.4628426 L20.1639284,20.2660918 L30.4102724,20.2660918 Z" id="Combined-Shape" fill="#1E2029" transform="translate(25.287100, 25.364467) rotate(180.000000) translate(-25.287100, -25.364467) "></path>
                    <path d="M30.4102724,0.0644644953 L30.4102724,4.19414857 L24.3129284,4.1934645 L24.3136977,10.2612153 L20.1639284,10.2612153 L20.1639284,0.0644644953 L30.4102724,0.0644644953 Z" id="Combined-Shape" fill="#1E2029" transform="translate(25.287100, 5.162840) rotate(90.000000) translate(-25.287100, -5.162840) "></path>
                </g>
                <path d="M51.2446377,25.34945 L58.6178553,5.6847576 L55.2490576,5.6847576 L49.7191444,21.0257799 L44.1892311,5.6847576 L40.7250901,5.6847576 L48.0983077,25.34945 L51.2446377,25.34945 Z M65.0199834,25.6697219 C66.6726012,25.6697219 68.0391889,24.9010694 68.8019356,24.0043082 L68.8019356,25.34945 L71.9800466,25.34945 L71.9800466,11.1293793 L68.8019356,11.1293793 L68.8019356,20.4813177 C68.4523434,21.8905139 67.2446612,22.755248 65.8780734,22.755248 C64.0665501,22.755248 63.2402412,21.6022692 63.2402412,19.840774 L63.2402412,11.1293793 L60.0621302,11.1293793 L60.0621302,20.3852362 C60.0621302,23.5239004 61.8100913,25.6697219 65.0199834,25.6697219 Z M80.2254792,25.34945 L80.2254792,13.7876358 L83.3082469,13.7876358 L83.3082469,11.1293793 L80.2254792,11.1293793 L80.2254792,9.14369373 C80.2254792,7.73449753 81.0200069,6.96584505 82.2912514,6.96584505 C82.7997491,6.96584505 83.3718091,7.0939538 83.8485258,7.41422566 L83.8485258,4.59583326 C83.2764658,4.33961577 82.6726247,4.21150702 81.7509725,4.21150702 C79.1131403,4.21150702 77.1109304,5.87692071 77.1109304,8.91950342 L77.1109304,11.1293793 L74.6637848,11.1293793 L74.6637848,13.7876358 L77.1109304,13.7876358 L77.1109304,25.34945 L80.2254792,25.34945 Z M89.4561262,25.34945 L89.4561262,16.1576476 C89.7739373,14.6203426 90.9816195,13.8837173 92.284645,13.8837173 C92.9520483,13.8837173 93.714795,14.0438532 94.1597305,14.3641251 L94.1597305,11.0653249 C93.9372627,10.9372162 93.3016405,10.8091074 92.6024561,10.8091074 C91.2358683,10.8091074 89.996405,11.5457327 89.4561262,12.6026299 L89.4561262,11.1293793 L86.2780151,11.1293793 L86.2780151,25.34945 L89.4561262,25.34945 Z M101.102138,25.6056675 C102.691193,25.6056675 104.089562,25.0291782 104.566279,24.5487704 L104.566279,25.34945 L107.617265,25.34945 L107.617265,16.0295388 C107.617265,12.794793 105.551493,10.8091074 101.896665,10.8091074 C100.116923,10.8091074 98.3371809,11.3535696 97.4155287,12.0261405 L97.4155287,14.9726417 C98.5596487,14.2039892 99.799112,13.7235814 101.324605,13.7235814 C103.295034,13.7235814 104.566279,14.6523698 104.566279,16.2537291 L104.566279,17.2465719 C103.994219,16.8302185 102.59585,16.3818379 101.324605,16.3818379 C98.2100565,16.3818379 95.8264732,18.2714419 95.8264732,20.9617255 C95.8264732,23.8761995 98.2100565,25.6056675 101.102138,25.6056675 Z M101.705979,23.0114654 C100.275829,23.0114654 98.7821165,22.4029489 98.7821165,20.9617255 C98.7821165,19.5525293 100.275829,18.9440128 101.705979,18.9440128 C102.977223,18.9440128 104.216686,19.4884749 104.566279,20.3852362 L104.566279,21.5702421 C104.216686,22.4670033 102.977223,23.0114654 101.705979,23.0114654 Z M114.686797,25.34945 L114.686797,15.8053485 C114.972827,14.3961523 116.053384,13.6915542 117.197504,13.6915542 C118.754779,13.6915542 119.517525,14.8445329 119.517525,16.6060282 L119.517525,25.34945 L122.695636,25.34945 L122.695636,15.8053485 C122.981666,14.3961523 124.062224,13.6915542 125.206344,13.6915542 C126.763619,13.6915542 127.526365,14.8445329 127.526365,16.6060282 L127.526365,25.34945 L130.704476,25.34945 L130.704476,16.0935932 C130.704476,12.8588474 129.020077,10.8091074 126.127996,10.8091074 C124.22113,10.8091074 122.918104,11.5457327 121.93289,12.6987114 C121.201924,11.6097871 119.803555,10.8091074 118.2145,10.8091074 C116.625444,10.8091074 115.3542,11.417624 114.686797,12.3143852 L114.686797,11.1293793 L111.508686,11.1293793 L111.508686,25.34945 L114.686797,25.34945 Z M140.602527,25.6697219 C142.382269,25.6697219 143.875981,25.3174229 145.083663,24.4206616 L145.083663,21.6022692 C143.748857,22.5310576 142.636518,22.9153839 141.047462,22.9153839 C138.791003,22.9153839 136.915918,21.730378 136.69345,18.9440128 L146.037096,18.9440128 L146.037096,17.7910341 C146.037096,13.6274998 144.003105,10.8091074 140.094029,10.8091074 C136.312077,10.8091074 133.610682,13.9157445 133.610682,18.3675234 C133.610682,22.8513295 136.470982,25.6697219 140.602527,25.6697219 Z M143.017891,16.5099466 L136.884137,16.5099466 C137.360853,14.3320979 138.727441,13.4993911 140.12581,13.4993911 C141.937333,13.4993911 142.922548,14.7804785 143.017891,16.5099466 Z" id="Vuframe" fill="#1E2029" fill-rule="nonzero"></path>
                <text id="®" font-family="Metric-Regular, Metric" font-size="16.989344" font-weight="normal" letter-spacing="0.0755081952" fill="#1E2029">
                    <tspan x="146.000665" y="15.4552433">®</tspan>
                </text>
            </g>
        </g>
        <text id="powered-by" font-family="Barlow-Regular, Barlow" font-size="17" font-weight="normal" fill="#FFFFFF">
            <tspan x="0" y="21">powered by</tspan>
        </text>
    </g>
</svg>